# Blender 4.2.0
# www.blender.org
mtllib ballsink.mtl
o Cube
v 2.700000 0.111589 -2.700000
v 2.700000 -0.514245 -2.700000
v 2.700000 0.111589 2.700000
v 2.700000 -0.514245 2.700000
v -2.700000 0.111589 -2.700000
v -2.700000 -0.514245 -2.700000
v -2.700000 0.111589 2.700000
v -2.700000 -0.514245 2.700000
v 0.000003 -0.466464 0.000003
v 1.045104 -0.466464 -1.045101
v -1.033811 -0.466464 -1.033811
v -1.041295 -0.466464 1.041298
v 1.061363 -0.466464 1.061363
vn 0.0005 0.9444 0.3288
vn -0.0000 -0.0000 1.0000
vn -1.0000 -0.0000 -0.0000
vn -0.0000 -1.0000 -0.0000
vn 1.0000 -0.0000 -0.0000
vn -0.0000 -0.0000 -1.0000
vn 0.0009 0.9437 -0.3309
vn 0.3284 0.9445 0.0003
vn -0.0000 1.0000 -0.0000
vn -0.3312 0.9436 0.0007
vt 0.625000 0.500000
vt 0.875000 0.500000
vt 0.797862 0.577138
vt 0.701616 0.576616
vt 0.375000 0.750000
vt 0.625000 0.750000
vt 0.625000 1.000000
vt 0.375000 1.000000
vt 0.375000 0.000000
vt 0.625000 0.000000
vt 0.625000 0.250000
vt 0.375000 0.250000
vt 0.125000 0.500000
vt 0.375000 0.500000
vt 0.125000 0.750000
vt 0.700863 0.674137
vt 0.798208 0.673208
vt 0.875000 0.750000
vt 0.750000 0.625000
s 0
usemtl Material
f 1/1/1 5/2/1 11/3/1 10/4/1
f 4/5/2 3/6/2 7/7/2 8/8/2
f 8/9/3 7/10/3 5/11/3 6/12/3
f 6/13/4 2/14/4 4/5/4 8/15/4
f 2/14/5 1/1/5 3/6/5 4/5/5
f 6/12/6 5/11/6 1/1/6 2/14/6
f 3/6/7 13/16/7 12/17/7 7/18/7
f 7/18/8 12/17/8 11/3/8 5/2/8
f 9/19/9 13/16/9 10/4/9
f 11/3/9 12/17/9 9/19/9
f 12/17/9 13/16/9 9/19/9
f 10/4/10 13/16/10 3/6/10 1/1/10
f 10/4/9 11/3/9 9/19/9
